HIERARCHY
ROOT joint_Root
{
	OFFSET 0.0 0.0 0.0
	CHANNELS 6 Xposition Yposition Zposition Zrotation Xrotation Yrotation 
	JOINT Hips
	{
		OFFSET 4.5925 91.4895 -427.239
		CHANNELS 6 Xposition Yposition Zposition Zrotation Xrotation Yrotation 
		JOINT Spine
		{
			OFFSET 15.7357 0.0 0.0
			CHANNELS 6 Xposition Yposition Zposition Zrotation Xrotation Yrotation 
			JOINT Chest
			{
				OFFSET 8.98455 -0.406207 0.0
				CHANNELS 6 Xposition Yposition Zposition Zrotation Xrotation Yrotation 
				JOINT Neck
				{
					OFFSET 16.3773 0.0 0.0
					CHANNELS 6 Xposition Yposition Zposition Zrotation Xrotation Yrotation 
					JOINT Head
					{
						OFFSET 6.45672 0.0 0.0
						CHANNELS 6 Xposition Yposition Zposition Zrotation Xrotation Yrotation 
						End Site
						{
							OFFSET 0.0 0.0 0.0
						}
					}
				}
				JOINT Shoulder_L
				{
					OFFSET 12.9942 -0.242716 4.98039
					CHANNELS 6 Xposition Yposition Zposition Zrotation Xrotation Yrotation 
					JOINT UpperArm_L
					{
						OFFSET 5.34809 0.0 0.0
						CHANNELS 6 Xposition Yposition Zposition Zrotation Xrotation Yrotation 
						JOINT LowerArm_L
						{
							OFFSET 24.3286 1.87007e-05 0.0
							CHANNELS 6 Xposition Yposition Zposition Zrotation Xrotation Yrotation 
							JOINT Hand_L
							{
								OFFSET 22.2916 0.0 0.0
								CHANNELS 6 Xposition Yposition Zposition Zrotation Xrotation Yrotation 
								End Site
								{
									OFFSET 0.0 0.0 0.0
								}
							}
						}
					}
				}
				JOINT Shoulder_R
				{
					OFFSET 12.9945 -0.242716 -4.98039
					CHANNELS 6 Xposition Yposition Zposition Zrotation Xrotation Yrotation 
					JOINT UpperArm_R
					{
						OFFSET -5.34813 0.0 0.0
						CHANNELS 6 Xposition Yposition Zposition Zrotation Xrotation Yrotation 
						JOINT LowerArm_R
						{
							OFFSET -24.3289 0.000322201 0.0
							CHANNELS 6 Xposition Yposition Zposition Zrotation Xrotation Yrotation 
							JOINT Hand_R
							{
								OFFSET -22.2915 -0.000108084 0.0
								CHANNELS 6 Xposition Yposition Zposition Zrotation Xrotation Yrotation 
								End Site
								{
									OFFSET 0.0 0.0 0.0
								}
							}
						}
					}
				}
			}
		}
		JOINT UpperLeg_L
		{
			OFFSET -2.19248 -6.46944 0.0
			CHANNELS 6 Xposition Yposition Zposition Zrotation Xrotation Yrotation 
			JOINT LowerLeg_L
			{
				OFFSET 39.0811 0.0 -1.23785e-05
				CHANNELS 6 Xposition Yposition Zposition Zrotation Xrotation Yrotation 
				JOINT Foot_L
				{
					OFFSET 40.9854 0.0 -1.26872e-05
					CHANNELS 6 Xposition Yposition Zposition Zrotation Xrotation Yrotation 
					JOINT Toes_L
					{
						OFFSET 11.7543 0.0 0.0
						CHANNELS 6 Xposition Yposition Zposition Zrotation Xrotation Yrotation 
						End Site
						{
							OFFSET 0.0 0.0 0.0
						}
					}
				}
			}
		}
		JOINT UpperLeg_R
		{
			OFFSET -2.19251 6.46944 0.0
			CHANNELS 6 Xposition Yposition Zposition Zrotation Xrotation Yrotation 
			JOINT LowerLeg_R
			{
				OFFSET -39.0811 -0.00228153 -0.0401928
				CHANNELS 6 Xposition Yposition Zposition Zrotation Xrotation Yrotation 
				JOINT Foot_R
				{
					OFFSET -40.9854 0.0 0.0
					CHANNELS 6 Xposition Yposition Zposition Zrotation Xrotation Yrotation 
					JOINT Toes_R
					{
						OFFSET -11.7543 0.0 0.0
						CHANNELS 6 Xposition Yposition Zposition Zrotation Xrotation Yrotation 
						End Site
						{
							OFFSET 0.0 0.0 0.0
						}
					}
				}
			}
		}
	}
}
MOTION
Frames:	6
Frame Time:	0.0333333
0.000000 0.000000 0.000000 0.000000 0.000000 -0.000000 105.198000 91.913400 154.286000 -74.815900 50.517800 164.796000 15.735700 0.000005 -0.000001 60.499800 84.266500 -60.511200 8.984550 -0.406207 -0.000000 2.224150 -5.642060 0.086677 16.377300 -0.000001 -0.000001 -1.513860 6.916910 -2.863500 6.456720 -0.000001 -0.000000 -5.010960 15.159500 -8.253890 12.994200 -0.242716 4.980390 -90.801500 3.140290 -75.675600 5.348090 -0.000007 -0.000001 -59.784200 41.354100 -30.053800 24.328600 0.000019 0.000005 10.177800 15.393300 -34.073900 22.291600 -0.000001 0.000005 11.043700 5.266040 1.004110 12.994500 -0.242716 -4.980390 88.368200 7.364340 -77.469700 -5.348130 -0.000001 -0.000004 -64.608400 36.878500 -1.473700 -24.328900 0.000322 -0.000009 2.971560 6.884920 -23.457800 -22.291500 -0.000108 -0.000004 3.492930 5.389360 -2.583500 -2.192480 -6.469440 -0.000000 -179.364000 -14.668100 -0.831655 39.081100 -0.000007 -0.000012 0.039006 -0.069209 29.405300 40.985400 -0.000006 -0.000013 12.427100 4.951580 -58.229400 11.754300 -0.000000 0.000003 -0.107492 -0.462787 -35.930500 -2.192510 6.469440 -0.000001 -176.904000 5.208870 158.786000 -39.081100 -0.002282 -0.040193 0.007518 -0.005898 35.636800 -40.985400 0.000008 0.000006 3.823380 -3.131210 -59.699100 -11.754300 -0.000006 -0.000006 -0.021867 -0.177416 -23.825300
0.000000 0.000000 0.000000 0.000000 0.000000 -0.000000 107.464000 91.444800 151.859000 -77.579000 44.964200 166.457000 15.735700 0.000005 -0.000001 58.015600 84.161100 -57.940800 8.984550 -0.406207 -0.000000 2.155220 -6.184950 0.265969 16.377300 -0.000001 -0.000001 -1.908100 6.133830 -2.698920 6.456720 -0.000001 -0.000000 -5.336940 14.286400 -8.037640 12.994200 -0.242716 4.980390 -90.701500 2.828820 -76.066700 5.348090 -0.000007 -0.000001 -56.365700 46.346800 -35.718900 24.328600 0.000019 0.000005 11.494100 14.041200 -39.966500 22.291600 -0.000001 0.000005 10.999200 5.281220 0.592763 12.994500 -0.242716 -4.980390 88.277500 7.669470 -77.301300 -5.348130 -0.000001 -0.000004 -68.921500 36.694100 3.925120 -24.328900 0.000322 -0.000009 3.708630 11.539500 -17.970700 -22.291500 -0.000108 -0.000004 1.086920 5.340220 -1.082860 -2.192480 -6.469440 -0.000000 -179.041000 -11.277400 0.753373 39.081100 -0.000007 -0.000012 0.038174 -0.069140 28.903900 40.985400 -0.000006 -0.000013 12.317600 7.528500 -57.799900 11.754300 -0.000000 0.000003 -0.136150 -0.526638 -38.768200 -2.192510 6.469440 -0.000001 -175.418000 8.346240 155.781000 -39.081100 -0.002282 -0.040193 0.004120 -0.001448 29.431200 -40.985400 0.000008 0.000006 2.392830 1.290930 -60.683700 -11.754300 -0.000006 -0.000006 -0.022602 -0.181299 -23.985500
0.000000 0.000000 0.000000 0.000000 0.000000 -0.000000 109.910000 90.526700 149.206000 -79.582500 40.246600 167.721000 15.735700 0.000005 -0.000001 57.206900 84.073600 -57.028500 8.984550 -0.406207 -0.000000 2.221260 -6.423590 0.481499 16.377300 -0.000001 -0.000001 -2.070730 5.397130 -2.400050 6.456720 -0.000001 -0.000000 -5.702190 13.492300 -7.850290 12.994200 -0.242716 4.980390 -90.627700 2.559920 -76.217200 5.348090 -0.000007 -0.000001 -51.918400 50.673100 -41.533300 24.328600 0.000019 0.000005 13.685300 13.501800 -46.202500 22.291600 -0.000001 0.000005 11.078700 5.297520 0.142686 12.994500 -0.242716 -4.980390 88.212700 7.814050 -77.073400 -5.348130 -0.000001 -0.000004 -72.654900 31.448300 8.189870 -24.328900 0.000322 -0.000009 3.163530 14.312700 -12.608900 -22.291500 -0.000108 -0.000004 1.951030 5.299120 0.090927 -2.192480 -6.469440 -0.000000 -178.561000 -8.555220 2.266500 39.081100 -0.000007 -0.000012 0.041520 -0.072838 29.684400 40.985400 -0.000006 -0.000013 12.415100 9.471890 -58.076200 11.754300 -0.000000 0.000003 -0.170793 -0.594242 -41.848400 -2.192510 6.469440 -0.000001 -173.162000 12.450700 152.605000 -39.081100 -0.002282 -0.040193 -0.007497 0.023517 24.685700 -40.985400 0.000008 0.000006 1.021420 7.957220 -62.407300 -11.754300 -0.000006 -0.000006 -0.021052 -0.173050 -23.645300
0.000000 0.000000 0.000000 0.000000 0.000000 -0.000000 112.629000 89.327400 146.300000 -79.808300 36.434700 167.950000 15.735700 0.000005 -0.000001 58.377600 83.997500 -57.654100 8.984550 -0.406207 -0.000000 2.511050 -6.322560 1.585310 16.377300 -0.000001 -0.000001 -1.854460 4.733420 -2.304990 6.456720 -0.000001 -0.000000 -6.377650 12.865000 -7.826040 12.994200 -0.242716 4.980390 -90.740300 2.990160 -76.087100 5.348090 -0.000007 -0.000001 -46.620600 53.921100 -46.763500 24.328600 0.000019 0.000005 16.118700 12.736400 -52.659600 22.291600 -0.000001 0.000005 11.395000 5.315360 -0.362184 12.994500 -0.242716 -4.980390 88.149300 7.967950 -76.878600 -5.348130 -0.000001 -0.000004 -73.954600 22.824000 10.142700 -24.328900 0.000322 -0.000009 1.828790 14.277600 -7.377000 -22.291500 -0.000108 -0.000004 4.779230 5.275330 0.747886 -2.192480 -6.469440 -0.000000 -176.516000 -7.531160 3.508530 39.081100 -0.000007 -0.000012 0.045251 -0.072743 31.883600 40.985400 -0.000006 -0.000013 12.244500 11.933000 -58.577400 11.754300 -0.000000 0.000003 -0.220711 -0.678457 -45.818400 -2.192510 6.469440 -0.000001 -170.187000 14.472900 147.322000 -39.081100 -0.002282 -0.040193 0.014280 -0.022082 26.418800 -40.985400 0.000008 0.000006 0.602353 16.228100 -60.120100 -11.754300 -0.000006 -0.000006 -0.024003 -0.188529 -24.284100
0.000000 0.000000 0.000000 0.000000 0.000000 -0.000000 115.887000 87.637100 142.561000 -80.202800 33.072200 169.302000 15.735700 0.000005 -0.000001 59.269800 83.669400 -58.103200 8.984550 -0.406207 -0.000000 3.202700 -6.509360 2.514680 16.377300 -0.000001 -0.000001 -1.374240 4.323780 -2.048900 6.456720 -0.000001 -0.000000 -6.524950 12.284400 -7.912960 12.994200 -0.242716 4.980390 -90.809700 3.196740 -75.779300 5.348090 -0.000007 -0.000001 -41.989800 56.452300 -50.436300 24.328600 0.000019 0.000005 17.397000 11.097600 -58.437200 22.291600 -0.000001 0.000005 11.673000 5.339690 -1.069580 12.994500 -0.242716 -4.980390 88.102200 8.103140 -76.771700 -5.348130 -0.000001 -0.000004 -74.092000 15.935600 10.833200 -24.328900 0.000322 -0.000009 0.562776 11.234000 -2.885090 -22.291500 -0.000108 -0.000004 7.509320 5.240740 1.671260 -2.192480 -6.469440 -0.000000 -174.476000 -6.260440 5.389550 39.081100 -0.000007 -0.000012 0.048903 -0.068404 35.561000 40.985400 -0.000006 -0.000013 11.326600 14.123500 -57.808600 11.754300 -0.000000 0.000003 -0.293991 -0.782262 -50.972100 -2.192510 6.469440 -0.000001 -173.070000 7.607210 145.138000 -39.081100 -0.002282 -0.040193 -0.105688 0.155577 35.010700 -40.985400 0.000008 0.000006 0.382241 15.913100 -56.048600 -11.754300 -0.000006 -0.000006 -0.010484 -0.107218 -20.942100
0.000000 0.000000 0.000000 0.000000 0.000000 -0.000000 119.485000 85.891000 137.988000 -80.073000 29.664000 172.944000 15.735700 0.000005 -0.000001 61.593400 82.488000 -59.867200 8.984550 -0.406207 -0.000000 5.593840 -7.163290 3.802460 16.377300 -0.000001 -0.000001 -1.292240 4.124810 -1.729640 6.456720 -0.000001 -0.000000 -6.154400 11.964900 -8.235330 12.994200 -0.242716 4.980390 -90.942500 3.629820 -75.433400 5.348090 -0.000007 -0.000001 -38.634000 58.417000 -52.083000 24.328600 0.000019 0.000005 17.764400 9.645710 -62.390800 22.291600 -0.000001 0.000005 11.915300 5.372160 -2.054360 12.994500 -0.242716 -4.980390 87.875200 8.884480 -76.491500 -5.348130 -0.000001 -0.000004 -73.160200 13.978600 10.223900 -24.328900 0.000322 -0.000009 0.006252 9.104390 -0.046499 -22.291500 -0.000108 -0.000004 7.938730 5.185100 3.093780 -2.192480 -6.469440 -0.000000 -172.229000 -3.421960 8.326160 39.081100 -0.000007 -0.000012 0.049692 -0.056533 41.314200 40.985400 -0.000006 -0.000013 8.870040 15.928900 -53.044900 11.754300 -0.000000 0.000003 -0.354624 -0.855240 -54.819900 -2.192510 6.469440 -0.000001 -174.667000 1.604530 147.288000 -39.081100 -0.002282 -0.040193 -0.048620 0.048968 46.653300 -40.985400 0.000008 0.000006 1.828570 4.970060 -66.802300 -11.754300 -0.000006 -0.000006 -0.003086 -0.041567 -18.263600
